<svg xmlns="http://www.w3.org/2000/svg" width="758.973" height="758.96" viewBox="0 0 758.973 758.96">
  <g id="Слой_2" data-name="Слой 2" transform="translate(-0.028 -0.03)">
    <g id="Layer_1" data-name="Layer 1" transform="translate(0.028 0.03)">
      <path id="Контур_68" data-name="Контур 68" d="M59.41.07Z" transform="translate(272.539 0.154)" fill="#161515"/>
      <path id="Контур_69" data-name="Контур 69" d="M68.349.09h0Z" transform="translate(311.004 0.245)" fill="#161515"/>
      <circle id="Эллипс_54" data-name="Эллипс 54" cx="0.112" cy="0.112" r="0.112" transform="translate(426.645)" fill="#161515"/>
      <path id="Контур_70" data-name="Контур 70" d="M34,8.55Z" transform="translate(155.906 39.077)" fill="#161515"/>
      <path id="Контур_71" data-name="Контур 71" d="M43.23,10.2a.894.894,0,0,0,.894-.894.95.95,0,0,0-.894-.95,1.006,1.006,0,0,0-.95.95A.95.95,0,0,0,43.23,10.2Z" transform="translate(193.912 38.205)" fill="#161515"/>
      <circle id="Эллипс_55" data-name="Эллипс 55" cx="1.733" cy="1.733" r="1.733" transform="translate(282.813 45.782)" fill="#161515"/>
      <circle id="Эллипс_56" data-name="Эллипс 56" cx="2.348" cy="2.348" r="2.348" transform="translate(329.602 45.168)" fill="#161515"/>
      <circle id="Эллипс_57" data-name="Эллипс 57" cx="2.627" cy="2.627" r="2.627" transform="translate(376.726 44.888)" fill="#161515"/>
      <circle id="Эллипс_58" data-name="Эллипс 58" cx="2.348" cy="2.348" r="2.348" transform="translate(424.409 45.168)" fill="#161515"/>
      <circle id="Эллипс_59" data-name="Эллипс 59" cx="1.845" cy="1.845" r="1.845" transform="translate(472.315 45.671)" fill="#161515"/>
      <circle id="Эллипс_60" data-name="Эллипс 60" cx="0.894" cy="0.894" r="0.894" transform="translate(520.669 46.621)" fill="#161515"/>
      <circle id="Эллипс_61" data-name="Эллипс 61" cx="0.28" cy="0.28" r="0.28" transform="translate(568.688 47.236)" fill="#161515"/>
      <path id="Контур_72" data-name="Контур 72" d="M25.949,17.972a.5.5,0,0,0,.5-.5.559.559,0,0,0-.5-.559.615.615,0,0,0-.559.559A.559.559,0,0,0,25.949,17.972Z" transform="translate(116.386 77.45)" fill="#161515"/>
      <path id="Контур_73" data-name="Контур 73" d="M35.607,20.574a1.957,1.957,0,0,0,0-3.913,1.9,1.9,0,0,0-1.957,1.957A1.957,1.957,0,0,0,35.607,20.574Z" transform="translate(154.299 76.302)" fill="#161515"/>
      <path id="Контур_74" data-name="Контур 74" d="M45.342,23.063a3.354,3.354,0,0,0,3.074-3.354,3.3,3.3,0,0,0-3.3-3.3,3.242,3.242,0,0,0-3.3,3.3,3.3,3.3,0,0,0,3.522,3.354Z" transform="translate(191.8 75.155)" fill="#161515"/>
      <path id="Контур_75" data-name="Контур 75" d="M54.6,25.154a4.472,4.472,0,1,0-4.472-4.472A4.472,4.472,0,0,0,54.6,25.154Z" transform="translate(229.944 74.237)" fill="#161515"/>
      <path id="Контур_76" data-name="Контур 76" d="M63.633,26.366a5.143,5.143,0,1,0-5.143-5.087,5.143,5.143,0,0,0,5.143,5.087Z" transform="translate(268.316 73.64)" fill="#161515"/>
      <path id="Контур_77" data-name="Контур 77" d="M72.48,27.18a5.59,5.59,0,1,0-5.59-5.59A5.59,5.59,0,0,0,72.48,27.18Z" transform="translate(306.873 73.273)" fill="#161515"/>
      <circle id="Эллипс_62" data-name="Эллипс 62" cx="5.143" cy="5.143" r="5.143" transform="translate(421.614 89.776)" fill="#161515"/>
      <path id="Контур_78" data-name="Контур 78" d="M88.522,25.154a4.472,4.472,0,1,0-4.472-4.472A4.472,4.472,0,0,0,88.522,25.154Z" transform="translate(385.638 74.237)" fill="#161515"/>
      <circle id="Эллипс_63" data-name="Эллипс 63" cx="3.41" cy="3.41" r="3.41" transform="translate(518.154 91.509)" fill="#161515"/>
      <path id="Контур_79" data-name="Контур 79" d="M103.509,20.823a2.068,2.068,0,0,0,2.124-2.068,2.124,2.124,0,0,0-2.124-2.124,2.068,2.068,0,0,0-2.068,2.124,2.012,2.012,0,0,0,2.068,2.068Z" transform="translate(465.458 76.165)" fill="#161515"/>
      <path id="Контур_80" data-name="Контур 80" d="M110.7,17.972a.559.559,0,0,0,.559-.5.615.615,0,0,0-.559-.559.559.559,0,0,0-.5.559A.5.5,0,0,0,110.7,17.972Z" transform="translate(505.668 77.45)" fill="#161515"/>
      <path id="Контур_81" data-name="Контур 81" d="M17.459,26.452a.5.5,0,0,0,.5-.5.559.559,0,0,0-.5-.559.615.615,0,0,0-.559.559A.559.559,0,0,0,17.459,26.452Z" transform="translate(77.417 116.374)" fill="#161515"/>
      <circle id="Эллипс_64" data-name="Эллипс 64" cx="2.348" cy="2.348" r="2.348" transform="translate(139.987 139.975)" fill="#161515"/>
      <path id="Контур_82" data-name="Контур 82" d="M37.443,33.125a4.193,4.193,0,1,0-4.193-4.193,4.193,4.193,0,0,0,4.193,4.193Z" transform="translate(152.464 113.39)" fill="#161515"/>
      <circle id="Эллипс_65" data-name="Эллипс 65" cx="5.758" cy="5.758" r="5.758" transform="translate(231.384 136.565)" fill="#161515"/>
      <path id="Контур_83" data-name="Контур 83" d="M56.668,38.205A6.932,6.932,0,1,0,51.73,36.2a6.987,6.987,0,0,0,4.937,2.01Z" transform="translate(227.878 111.049)" fill="#161515"/>
      <path id="Контур_84" data-name="Контур 84" d="M65.882,39.64A7.77,7.77,0,1,0,60.316,37.4,7.77,7.77,0,0,0,65.882,39.64Z" transform="translate(266.067 110.453)" fill="#161515"/>
      <circle id="Эллипс_66" data-name="Эллипс 66" cx="8.161" cy="8.161" r="8.161" transform="translate(371.192 134.161)" fill="#161515"/>
      <path id="Контур_85" data-name="Контур 85" d="M82.658,39.842A7.882,7.882,0,1,0,75,31.96,7.882,7.882,0,0,0,82.658,39.842Z" transform="translate(344.098 110.363)" fill="#161515"/>
      <path id="Контур_86" data-name="Контур 86" d="M90.679,38.419a7.1,7.1,0,1,0-7.1-7.1,7.1,7.1,0,0,0,7.1,7.1Z" transform="translate(383.481 111.003)" fill="#161515"/>
      <circle id="Эллипс_67" data-name="Эллипс 67" cx="5.925" cy="5.925" r="5.925" transform="translate(515.638 136.397)" fill="#161515"/>
      <circle id="Эллипс_68" data-name="Эллипс 68" cx="4.36" cy="4.36" r="4.36" transform="translate(564.607 137.962)" fill="#161515"/>
      <circle id="Эллипс_69" data-name="Эллипс 69" cx="2.516" cy="2.516" r="2.516" transform="translate(613.855 139.807)" fill="#161515"/>
      <path id="Контур_87" data-name="Контур 87" d="M119.183,26.452a.559.559,0,0,0,.559-.5.615.615,0,0,0-.559-.559.559.559,0,0,0-.5.559.5.5,0,0,0,.5.5Z" transform="translate(544.592 116.374)" fill="#161515"/>
      <circle id="Эллипс_70" data-name="Эллипс 70" cx="0.112" cy="0.112" r="0.112" transform="translate(47.416 189.614)" fill="#161515"/>
      <path id="Контур_88" data-name="Контур 88" d="M18.607,37.534a1.956,1.956,0,1,0,0-3.913,1.9,1.9,0,0,0-1.957,1.956A1.957,1.957,0,0,0,18.607,37.534Z" transform="translate(76.268 154.149)" fill="#161515"/>
      <circle id="Эллипс_71" data-name="Эллипс 71" cx="4.193" cy="4.193" r="4.193" transform="translate(138.142 185.534)" fill="#161515"/>
      <path id="Контур_89" data-name="Контур 89" d="M39.326,45.472a6.317,6.317,0,1,0-6.484-6.149A6.317,6.317,0,0,0,39.326,45.472Z" transform="translate(150.58 150.571)" fill="#161515"/>
      <path id="Контур_90" data-name="Контур 90" d="M49.61,48.6a8.05,8.05,0,1,0-7.527-3.8,8.05,8.05,0,0,0,7.527,3.8Z" transform="translate(187.532 149.124)" fill="#161515"/>
      <path id="Контур_91" data-name="Контур 91" d="M58.826,51.48a9.615,9.615,0,1,0-9.615-9.447,9.614,9.614,0,0,0,9.615,9.447Z" transform="translate(225.72 147.861)" fill="#161515"/>
      <path id="Контур_92" data-name="Контур 92" d="M68.04,53.109A10.509,10.509,0,1,0,57.531,42.767,10.509,10.509,0,0,0,68.04,53.109Z" transform="translate(263.909 147.127)" fill="#161515"/>
      <path id="Контур_93" data-name="Контур 93" d="M77.073,54.28A11.18,11.18,0,1,0,65.893,43.1a10.9,10.9,0,0,0,11.18,11.18Z" transform="translate(302.28 146.347)" fill="#161515"/>
      <path id="Контур_94" data-name="Контур 94" d="M85,53.109A10.509,10.509,0,1,0,74.491,42.767,10.509,10.509,0,0,0,85,53.109Z" transform="translate(341.756 147.127)" fill="#161515"/>
      <path id="Контур_95" data-name="Контур 95" d="M92.746,51.48a9.615,9.615,0,1,0-9.615-9.447,9.614,9.614,0,0,0,9.615,9.447Z" transform="translate(381.414 147.861)" fill="#161515"/>
      <circle id="Эллипс_72" data-name="Эллипс 72" cx="8.161" cy="8.161" r="8.161" transform="translate(513.402 181.565)" fill="#161515"/>
      <path id="Контур_96" data-name="Контур 96" d="M107.09,45.677a6.429,6.429,0,1,0-6.429-6.261,6.428,6.428,0,0,0,6.429,6.261Z" transform="translate(461.877 150.478)" fill="#161515"/>
      <path id="Контур_97" data-name="Контур 97" d="M113.825,41.855a4.3,4.3,0,0,0,4.36-4.3,4.36,4.36,0,0,0-4.36-4.36,4.3,4.3,0,0,0-4.3,4.36,4.248,4.248,0,0,0,4.3,4.3Z" transform="translate(502.546 152.176)" fill="#161515"/>
      <path id="Контур_98" data-name="Контур 98" d="M120.469,37.783a2.068,2.068,0,0,0,2.124-2.068,2.124,2.124,0,0,0-2.124-2.124,2.068,2.068,0,0,0-2.068,2.124,2.012,2.012,0,0,0,2.068,2.068Z" transform="translate(543.306 154.012)" fill="#161515"/>
      <path id="Контур_99" data-name="Контур 99" d="M127.291,34.229a.279.279,0,0,0,0-.279S127.179,34.229,127.291,34.229Z" transform="translate(583.887 155.664)" fill="#161515"/>
      <path id="Контур_100" data-name="Контур 100" d="M9.31,44.125a.894.894,0,0,0,.894-.894.95.95,0,0,0-.894-.95,1.006,1.006,0,0,0-.95.95A.95.95,0,0,0,9.31,44.125Z" transform="translate(38.218 193.899)" fill="#161515"/>
      <circle id="Эллипс_73" data-name="Эллипс 73" cx="3.298" cy="3.298" r="3.298" transform="translate(91.633 233.832)" fill="#161515"/>
      <circle id="Эллипс_74" data-name="Эллипс 74" cx="5.758" cy="5.758" r="5.758" transform="translate(136.577 231.372)" fill="#161515"/>
      <path id="Контур_101" data-name="Контур 101" d="M41.16,57.122a8.05,8.05,0,1,0,0-16.1,8.05,8.05,0,1,0,0,16.043Z" transform="translate(148.746 188.001)" fill="#161515"/>
      <path id="Контур_102" data-name="Контур 102" d="M50.758,60.876A10.118,10.118,0,1,0,40.64,50.758,10.118,10.118,0,0,0,50.758,60.876Z" transform="translate(186.384 186.372)" fill="#161515"/>
      <path id="Контур_103" data-name="Контур 103" d="M60.753,64.235A11.963,11.963,0,1,0,48.79,52.273,11.963,11.963,0,0,0,60.753,64.235Z" transform="translate(223.793 184.857)" fill="#161515"/>
      <path id="Контур_104" data-name="Контур 104" d="M70.2,66.373A13.137,13.137,0,1,0,57.06,53.237,13.137,13.137,0,0,0,70.2,66.373Z" transform="translate(261.753 183.893)" fill="#161515"/>
      <path id="Контур_105" data-name="Контур 105" d="M79.136,67.382a13.7,13.7,0,1,0-13.7-13.64,13.7,13.7,0,0,0,13.7,13.64Z" transform="translate(300.217 183.388)" fill="#161515"/>
      <circle id="Эллипс_75" data-name="Эллипс 75" cx="13.304" cy="13.304" r="13.304" transform="translate(413.452 223.826)" fill="#161515"/>
      <path id="Контур_106" data-name="Контур 106" d="M94.765,64.439A12.074,12.074,0,1,0,82.69,52.365,12.074,12.074,0,0,0,94.765,64.439Z" transform="translate(379.396 184.765)" fill="#161515"/>
      <path id="Контур_107" data-name="Контур 107" d="M101.73,61.172A10.286,10.286,0,1,0,91.5,50.942a10.286,10.286,0,0,0,10.23,10.23Z" transform="translate(419.834 186.188)" fill="#161515"/>
      <path id="Контур_108" data-name="Контур 108" d="M108.511,57.313a8.161,8.161,0,1,0-8.161-8.161A8.161,8.161,0,0,0,108.511,57.313Z" transform="translate(460.456 187.978)" fill="#161515"/>
      <path id="Контур_109" data-name="Контур 109" d="M115.155,53.241a5.925,5.925,0,1,0-5.925-5.925,5.925,5.925,0,0,0,5.925,5.925Z" transform="translate(501.216 189.814)" fill="#161515"/>
      <path id="Контур_110" data-name="Контур 110" d="M121.662,48.909a3.55,3.55,0,1,0-3.522-3.522,3.522,3.522,0,0,0,3.522,3.522Z" transform="translate(542.113 191.742)" fill="#161515"/>
      <path id="Контур_111" data-name="Контур 111" d="M128.076,44.383a1.062,1.062,0,1,0-1.006-1.062,1.062,1.062,0,0,0,1.006,1.062Z" transform="translate(583.102 193.809)" fill="#161515"/>
      <path id="Контур_112" data-name="Контур 112" d="M9.953,54.086A1.733,1.733,0,1,0,8.22,52.353a1.733,1.733,0,0,0,1.733,1.733Z" transform="translate(37.575 232.18)" fill="#161515"/>
      <path id="Контур_113" data-name="Контур 113" d="M20.672,59.074A4.472,4.472,0,1,0,16.2,54.6,4.472,4.472,0,0,0,20.672,59.074Z" transform="translate(74.203 229.931)" fill="#161515"/>
      <path id="Контур_114" data-name="Контур 114" d="M31.228,63.655a6.932,6.932,0,1,0-4.958-2.03,6.988,6.988,0,0,0,4.958,2.03Z" transform="translate(111.107 227.866)" fill="#161515"/>
      <path id="Контур_115" data-name="Контур 115" d="M41.895,68.44a9.615,9.615,0,1,0-9.615-9.615A9.615,9.615,0,0,0,41.895,68.44Z" transform="translate(148.011 225.709)" fill="#161515"/>
      <path id="Контур_116" data-name="Контур 116" d="M52.273,72.715A11.963,11.963,0,1,0,40.31,60.753,11.963,11.963,0,0,0,52.273,72.715Z" transform="translate(184.87 223.781)" fill="#161515"/>
      <circle id="Эллипс_76" data-name="Эллипс 76" cx="14.087" cy="14.087" r="14.087" transform="translate(270.459 270.446)" fill="#161515"/>
      <path id="Контур_117" data-name="Контур 117" d="M72.354,79.638A15.764,15.764,0,1,0,56.59,63.874,15.764,15.764,0,0,0,72.354,79.638Z" transform="translate(259.595 220.659)" fill="#161515"/>
      <path id="Контур_118" data-name="Контур 118" d="M81.155,80.858A16.435,16.435,0,1,0,65,64.423,16.435,16.435,0,0,0,81.155,80.858Z" transform="translate(298.198 220.11)" fill="#161515"/>
      <path id="Контур_119" data-name="Контур 119" d="M89.314,79.638A15.764,15.764,0,1,0,73.55,63.874,15.764,15.764,0,0,0,89.314,79.638Z" transform="translate(337.443 220.659)" fill="#161515"/>
      <path id="Контур_120" data-name="Контур 120" d="M96.509,76.787a14.2,14.2,0,1,0-14.2-14.2A14.2,14.2,0,0,0,96.509,76.787Z" transform="translate(377.651 221.945)" fill="#161515"/>
      <path id="Контур_121" data-name="Контур 121" d="M103.245,72.919A12.075,12.075,0,1,0,91.17,60.845a12.075,12.075,0,0,0,12.075,12.074Z" transform="translate(418.319 223.689)" fill="#161515"/>
      <path id="Контур_122" data-name="Контур 122" d="M109.8,68.643a9.727,9.727,0,1,0-9.727-9.727A9.727,9.727,0,0,0,109.8,68.643Z" transform="translate(459.171 225.617)" fill="#161515"/>
      <path id="Контур_123" data-name="Контур 123" d="M116.211,64.062A7.211,7.211,0,1,0,109,56.851,7.211,7.211,0,0,0,116.211,64.062Z" transform="translate(500.16 227.682)" fill="#161515"/>
      <path id="Контур_124" data-name="Контур 124" d="M122.534,59.278a4.584,4.584,0,1,0-4.584-4.584A4.584,4.584,0,0,0,122.534,59.278Z" transform="translate(541.241 229.84)" fill="#161515"/>
      <path id="Контур_125" data-name="Контур 125" d="M128.856,54.264a1.824,1.824,0,1,0-1.956-1.957,1.956,1.956,0,0,0,1.956,1.956Z" transform="translate(582.322 232.226)" fill="#161515"/>
      <path id="Контур_126" data-name="Контур 126" d="M135.73,51.413h0v0Z" transform="translate(622.852 233.512)" fill="#161515"/>
      <path id="Контур_127" data-name="Контур 127" d="M.152,59.43Z" transform="translate(-0.028 272.619)" fill="#161515"/>
      <path id="Контур_128" data-name="Контур 128" d="M10.5,63.685a2.348,2.348,0,1,0-1.7-.668,2.348,2.348,0,0,0,1.7.668Z" transform="translate(37.024 270.6)" fill="#161515"/>
      <path id="Контур_129" data-name="Контур 129" d="M21.223,68.776a5.143,5.143,0,1,0-5.143-5.143A5.143,5.143,0,0,0,21.223,68.776Z" transform="translate(73.653 268.304)" fill="#161515"/>
      <path id="Контур_130" data-name="Контур 130" d="M31.87,73.56a7.77,7.77,0,1,0-7.77-7.77A7.77,7.77,0,0,0,31.87,73.56Z" transform="translate(110.465 266.147)" fill="#161515"/>
      <path id="Контур_131" data-name="Контур 131" d="M42.629,78.549A10.509,10.509,0,1,0,32.12,68.039,10.509,10.509,0,0,0,42.629,78.549Z" transform="translate(147.277 263.898)" fill="#161515"/>
      <path id="Контур_132" data-name="Контур 132" d="M53.237,83.333A13.137,13.137,0,1,0,40.1,70.2,13.137,13.137,0,0,0,53.237,83.333Z" transform="translate(183.906 261.74)" fill="#161515"/>
      <path id="Контур_133" data-name="Контур 133" d="M63.874,88.118A15.764,15.764,0,1,0,48.11,72.354,15.764,15.764,0,0,0,63.874,88.118Z" transform="translate(220.672 259.583)" fill="#161515"/>
      <path id="Контур_134" data-name="Контур 134" d="M74.19,92.19a18,18,0,1,0-18-18,18,18,0,0,0,18,18Z" transform="translate(257.759 257.747)" fill="#161515"/>
      <circle id="Эллипс_77" data-name="Эллипс 77" cx="19.062" cy="19.062" r="19.062" transform="translate(360.291 312.875)" fill="#161515"/>
      <path id="Контур_135" data-name="Контур 135" d="M91.15,92.19a18,18,0,1,0-18-18,18,18,0,0,0,18,18Z" transform="translate(335.607 257.747)" fill="#161515"/>
      <path id="Контур_136" data-name="Контур 136" d="M97.932,88.423A15.932,15.932,0,1,0,82,72.492,15.932,15.932,0,0,0,97.932,88.423Z" transform="translate(376.229 259.445)" fill="#161515"/>
      <circle id="Эллипс_78" data-name="Эллипс 78" cx="13.304" cy="13.304" r="13.304" transform="translate(508.259 318.633)" fill="#161515"/>
      <path id="Контур_137" data-name="Контур 137" d="M110.531,78.752A10.621,10.621,0,1,0,99.91,68.131a10.621,10.621,0,0,0,10.621,10.621Z" transform="translate(458.436 263.806)" fill="#161515"/>
      <path id="Контур_138" data-name="Контур 138" d="M116.854,73.968a7.994,7.994,0,1,0-7.994-7.994,7.994,7.994,0,0,0,7.994,7.994Z" transform="translate(499.517 265.963)" fill="#161515"/>
      <path id="Контур_139" data-name="Контур 139" d="M123.085,68.979a5.255,5.255,0,1,0-5.255-5.255,5.255,5.255,0,0,0,5.255,5.255Z" transform="translate(540.69 268.212)" fill="#161515"/>
      <circle id="Эллипс_79" data-name="Эллипс 79" cx="2.516" cy="2.516" r="2.516" transform="translate(708.663 329.421)" fill="#161515"/>
      <path id="Контур_140" data-name="Контур 140" d="M135.959,59.919V59.36a.279.279,0,0,0,0,.559Z" transform="translate(622.622 272.297)" fill="#161515"/>
      <path id="Контур_141" data-name="Контур 141" d="M.05,68.4a.279.279,0,1,0,0-.559Z" transform="translate(0.074 311.221)" fill="#161515"/>
      <path id="Контур_142" data-name="Контур 142" d="M10.687,72.675A2.627,2.627,0,1,0,8.06,70.047,2.627,2.627,0,0,0,10.687,72.675Z" transform="translate(36.84 309.293)" fill="#161515"/>
      <path id="Контур_143" data-name="Контур 143" d="M21.59,78.03A5.59,5.59,0,1,0,16,72.44,5.59,5.59,0,0,0,21.59,78.03Z" transform="translate(73.285 306.677)" fill="#161515"/>
      <circle id="Эллипс_80" data-name="Эллипс 80" cx="8.161" cy="8.161" r="8.161" transform="translate(134.174 371.179)" fill="#161515"/>
      <path id="Контур_144" data-name="Контур 144" d="M42.954,88.2a11.18,11.18,0,1,0-10.9-11.18,10.9,10.9,0,0,0,10.9,11.18Z" transform="translate(146.953 302.044)" fill="#161515"/>
      <path id="Контур_145" data-name="Контур 145" d="M53.7,92.831A13.7,13.7,0,1,0,40,79.136a13.7,13.7,0,0,0,13.7,13.7Z" transform="translate(183.447 300.205)" fill="#161515"/>
      <path id="Контур_146" data-name="Контур 146" d="M64.379,97.82A16.435,16.435,0,1,0,48,81.385,16.435,16.435,0,0,0,64.379,97.82Z" transform="translate(220.167 297.956)" fill="#161515"/>
      <circle id="Эллипс_81" data-name="Эллипс 81" cx="19.062" cy="19.062" r="19.062" transform="translate(312.887 360.279)" fill="#161515"/>
      <path id="Контур_147" data-name="Контур 147" d="M85.149,106.167A21.019,21.019,0,1,0,64.13,85.149,21.019,21.019,0,0,0,85.149,106.167Z" transform="translate(294.204 294.192)" fill="#161515"/>
      <path id="Контур_148" data-name="Контур 148" d="M92.252,103.113A19.342,19.342,0,1,0,72.91,83.772,19.342,19.342,0,0,0,92.252,103.113Z" transform="translate(334.505 295.569)" fill="#161515"/>
      <circle id="Эллипс_82" data-name="Эллипс 82" cx="16.547" cy="16.547" r="16.547" transform="translate(457.614 362.794)" fill="#161515"/>
      <path id="Контур_149" data-name="Контур 149" d="M104.667,93.035A13.807,13.807,0,1,0,90.86,79.227,13.807,13.807,0,0,0,104.667,93.035Z" transform="translate(416.896 300.113)" fill="#161515"/>
      <path id="Контур_150" data-name="Контур 150" d="M110.99,88.23A11.18,11.18,0,1,0,99.81,77.05,11.18,11.18,0,0,0,110.99,88.23Z" transform="translate(457.977 302.179)" fill="#161515"/>
      <circle id="Эллипс_83" data-name="Эллипс 83" cx="8.273" cy="8.273" r="8.273" transform="translate(608.098 371.067)" fill="#161515"/>
      <path id="Контур_151" data-name="Контур 151" d="M123.36,78.06a5.59,5.59,0,1,0-5.59-5.59A5.59,5.59,0,0,0,123.36,78.06Z" transform="translate(540.415 306.815)" fill="#161515"/>
      <path id="Контур_152" data-name="Контур 152" d="M129.5,72.878a2.739,2.739,0,1,0-2.739-2.739,2.739,2.739,0,0,0,2.739,2.739Z" transform="translate(581.679 309.202)" fill="#161515"/>
      <path id="Контур_153" data-name="Контур 153" d="M136.051,68.643a.391.391,0,1,0-.391-.391A.391.391,0,0,0,136.051,68.643Z" transform="translate(622.53 311.313)" fill="#161515"/>
      <circle id="Эллипс_84" data-name="Эллипс 84" cx="0.112" cy="0.112" r="0.112" transform="translate(0.012 426.632)" fill="#161515"/>
      <circle id="Эллипс_85" data-name="Эллипс 85" cx="2.348" cy="2.348" r="2.348" transform="translate(45.18 424.396)" fill="#161515"/>
      <circle id="Эллипс_86" data-name="Эллипс 86" cx="5.143" cy="5.143" r="5.143" transform="translate(89.789 421.601)" fill="#161515"/>
      <path id="Контур_154" data-name="Контур 154" d="M31.962,90.724a7.882,7.882,0,1,0-7.882-7.882A7.882,7.882,0,0,0,31.962,90.724Z" transform="translate(110.373 343.902)" fill="#161515"/>
      <path id="Контур_155" data-name="Контур 155" d="M42.629,95.509A10.509,10.509,0,1,0,32.12,85,10.509,10.509,0,0,0,42.629,95.509Z" transform="translate(147.277 341.745)" fill="#161515"/>
      <path id="Контур_156" data-name="Контур 156" d="M53.374,100.6a13.3,13.3,0,1,0-13.3-13.3A13.3,13.3,0,0,0,53.374,100.6Z" transform="translate(183.768 339.45)" fill="#161515"/>
      <path id="Контур_157" data-name="Контур 157" d="M63.874,105.078A15.764,15.764,0,1,0,48.11,89.314,15.764,15.764,0,0,0,63.874,105.078Z" transform="translate(220.672 337.43)" fill="#161515"/>
      <path id="Контур_158" data-name="Контур 158" d="M74.19,109.15a18,18,0,1,0-18-18,18,18,0,0,0,18,18Z" transform="translate(257.759 335.594)" fill="#161515"/>
      <path id="Контур_159" data-name="Контур 159" d="M83.772,111.593A19.342,19.342,0,1,0,64.43,92.252a19.342,19.342,0,0,0,19.342,19.342Z" transform="translate(295.581 334.493)" fill="#161515"/>
      <circle id="Эллипс_87" data-name="Эллипс 87" cx="18.168" cy="18.168" r="18.168" transform="translate(408.589 408.577)" fill="#161515"/>
      <path id="Контур_160" data-name="Контур 160" d="M97.932,105.383A15.932,15.932,0,1,0,82,89.452,15.932,15.932,0,0,0,97.932,105.383Z" transform="translate(376.229 337.292)" fill="#161515"/>
      <circle id="Эллипс_88" data-name="Эллипс 88" cx="13.416" cy="13.416" r="13.416" transform="translate(508.148 413.328)" fill="#161515"/>
      <circle id="Эллипс_89" data-name="Эллипс 89" cx="10.621" cy="10.621" r="10.621" transform="translate(558.346 416.123)" fill="#161515"/>
      <path id="Контур_161" data-name="Контур 161" d="M116.349,91.006a8.05,8.05,0,1,0-7.38-8.022,8.05,8.05,0,0,0,7.38,8.022Z" transform="translate(500.022 343.787)" fill="#161515"/>
      <path id="Контур_162" data-name="Контур 162" d="M123.085,85.939a5.255,5.255,0,1,0-5.255-5.255A5.255,5.255,0,0,0,123.085,85.939Z" transform="translate(540.69 346.059)" fill="#161515"/>
      <circle id="Эллипс_90" data-name="Эллипс 90" cx="2.516" cy="2.516" r="2.516" transform="translate(708.663 424.229)" fill="#161515"/>
      <path id="Контур_163" data-name="Контур 163" d="M135.959,76.879a.28.28,0,1,0-.279-.28A.28.28,0,0,0,135.959,76.879Z" transform="translate(622.622 350.145)" fill="#161515"/>
      <circle id="Эллипс_91" data-name="Эллипс 91" cx="1.845" cy="1.845" r="1.845" transform="translate(45.683 472.303)" fill="#161515"/>
      <path id="Контур_164" data-name="Контур 164" d="M20.672,92.994A4.472,4.472,0,1,0,16.2,88.522,4.472,4.472,0,0,0,20.672,92.994Z" transform="translate(74.203 385.626)" fill="#161515"/>
      <path id="Контур_165" data-name="Контур 165" d="M31.319,97.779a7.1,7.1,0,1,0-7.1-7.1A7.1,7.1,0,0,0,31.319,97.779Z" transform="translate(111.016 383.468)" fill="#161515"/>
      <path id="Контур_166" data-name="Контур 166" d="M41.895,102.36a9.615,9.615,0,1,0-9.615-9.615A9.615,9.615,0,0,0,41.895,102.36Z" transform="translate(148.011 381.403)" fill="#161515"/>
      <path id="Контур_167" data-name="Контур 167" d="M52.365,106.829A12.074,12.074,0,1,0,40.29,94.755a12.074,12.074,0,0,0,12.075,12.074Z" transform="translate(184.778 379.337)" fill="#161515"/>
      <path id="Контур_168" data-name="Контур 168" d="M62.589,110.707a14.2,14.2,0,1,0-14.2-14.2,14.2,14.2,0,0,0,14.2,14.2Z" transform="translate(221.957 377.639)" fill="#161515"/>
      <path id="Контур_169" data-name="Контур 169" d="M72.492,113.863A15.932,15.932,0,1,0,56.56,97.932,15.932,15.932,0,0,0,72.492,113.863Z" transform="translate(259.458 376.216)" fill="#161515"/>
      <circle id="Эллипс_92" data-name="Эллипс 92" cx="16.547" cy="16.547" r="16.547" transform="translate(362.806 457.601)" fill="#161515"/>
      <circle id="Эллипс_93" data-name="Эллипс 93" cx="15.932" cy="15.932" r="15.932" transform="translate(410.825 458.216)" fill="#161515"/>
      <path id="Контур_170" data-name="Контур 170" d="M96.6,110.911a14.254,14.254,0,1,0-10.136-4.175A14.31,14.31,0,0,0,96.6,110.911Z" transform="translate(377.56 377.547)" fill="#161515"/>
      <circle id="Эллипс_94" data-name="Эллипс 94" cx="12.242" cy="12.242" r="12.242" transform="translate(509.322 461.906)" fill="#161515"/>
      <circle id="Эллипс_95" data-name="Эллипс 95" cx="9.727" cy="9.727" r="9.727" transform="translate(559.241 464.421)" fill="#161515"/>
      <circle id="Эллипс_96" data-name="Эллипс 96" cx="7.211" cy="7.211" r="7.211" transform="translate(609.16 466.937)" fill="#161515"/>
      <path id="Контур_171" data-name="Контур 171" d="M122.534,93.2a4.584,4.584,0,1,0-4.584-4.584A4.584,4.584,0,0,0,122.534,93.2Z" transform="translate(541.241 385.534)" fill="#161515"/>
      <path id="Контур_172" data-name="Контур 172" d="M128.856,88.184a1.956,1.956,0,0,0,2.012-1.957,2.012,2.012,0,0,0-3.969,0A1.957,1.957,0,0,0,128.856,88.184Z" transform="translate(582.322 387.92)" fill="#161515"/>
      <path id="Контур_173" data-name="Контур 173" d="M135.73,85.054h0v0Z" transform="translate(622.852 389.206)" fill="#161515"/>
      <circle id="Эллипс_97" data-name="Эллипс 97" cx="0.894" cy="0.894" r="0.894" transform="translate(46.633 520.657)" fill="#161515"/>
      <circle id="Эллипс_98" data-name="Эллипс 98" cx="3.41" cy="3.41" r="3.41" transform="translate(91.521 518.141)" fill="#161515"/>
      <circle id="Эллипс_99" data-name="Эллипс 99" cx="5.925" cy="5.925" r="5.925" transform="translate(136.41 515.626)" fill="#161515"/>
      <path id="Контур_174" data-name="Контур 174" d="M40.7,108.193a8.161,8.161,0,1,0-8.161-8.161A8.161,8.161,0,0,0,40.7,108.193Z" transform="translate(149.205 421.52)" fill="#161515"/>
      <path id="Контур_175" data-name="Контур 175" d="M50.9,112.061A10.286,10.286,0,1,0,40.61,101.776,10.286,10.286,0,0,0,50.9,112.061Z" transform="translate(186.247 419.776)" fill="#161515"/>
      <path id="Контур_176" data-name="Контур 176" d="M60.845,115.319A12.075,12.075,0,1,0,48.77,103.245,12.075,12.075,0,0,0,60.845,115.319Z" transform="translate(223.701 418.307)" fill="#161515"/>
      <circle id="Эллипс_100" data-name="Эллипс 100" cx="13.304" cy="13.304" r="13.304" transform="translate(318.645 508.247)" fill="#161515"/>
      <path id="Контур_177" data-name="Контур 177" d="M79.227,118.475A13.807,13.807,0,1,0,65.42,104.667a13.808,13.808,0,0,0,13.807,13.807Z" transform="translate(300.126 416.884)" fill="#161515"/>
      <circle id="Эллипс_101" data-name="Эллипс 101" cx="13.416" cy="13.416" r="13.416" transform="translate(413.34 508.135)" fill="#161515"/>
      <circle id="Эллипс_102" data-name="Эллипс 102" cx="12.242" cy="12.242" r="12.242" transform="translate(461.918 509.309)" fill="#161515"/>
      <path id="Контур_178" data-name="Контур 178" d="M101.868,112.265a10.4,10.4,0,1,0-10.4-10.4A10.4,10.4,0,0,0,101.868,112.265Z" transform="translate(419.696 419.684)" fill="#161515"/>
      <circle id="Эллипс_103" data-name="Эллипс 103" cx="8.273" cy="8.273" r="8.273" transform="translate(560.694 513.278)" fill="#161515"/>
      <circle id="Эллипс_104" data-name="Эллипс 104" cx="6.037" cy="6.037" r="6.037" transform="translate(610.334 515.514)" fill="#161515"/>
      <circle id="Эллипс_105" data-name="Эллипс 105" cx="3.522" cy="3.522" r="3.522" transform="translate(660.253 518.03)" fill="#161515"/>
      <path id="Контур_179" data-name="Контур 179" d="M128.1,95.463a1.006,1.006,0,0,0,1.062-1.062,1.062,1.062,0,1,0-2.068,0,1.006,1.006,0,0,0,1.006,1.062Z" transform="translate(583.079 427.15)" fill="#161515"/>
      <circle id="Эллипс_106" data-name="Эллипс 106" cx="0.28" cy="0.28" r="0.28" transform="translate(47.248 568.675)" fill="#161515"/>
      <path id="Контур_180" data-name="Контур 180" d="M18.744,105.633a2.068,2.068,0,0,0,2.068-2.124,2.012,2.012,0,0,0-2.068-2.068,2.068,2.068,0,0,0-2.124,2.068,2.124,2.124,0,0,0,2.124,2.124Z" transform="translate(76.131 465.446)" fill="#161515"/>
      <path id="Контур_181" data-name="Контур 181" d="M29.07,109.7a4.3,4.3,0,0,0,4.3-4.36,4.248,4.248,0,0,0-4.3-4.3,4.3,4.3,0,0,0-4.36,4.3,4.36,4.36,0,0,0,4.36,4.36Z" transform="translate(113.265 463.61)" fill="#161515"/>
      <path id="Контур_182" data-name="Контур 182" d="M39.279,113.557a6.373,6.373,0,1,0-4.562-1.866,6.429,6.429,0,0,0,4.562,1.866Z" transform="translate(150.628 462.05)" fill="#161515"/>
      <path id="Контур_183" data-name="Контур 183" d="M49.106,116.673A8.161,8.161,0,1,0,41,108.512a8.161,8.161,0,0,0,8.106,8.161Z" transform="translate(188.037 460.443)" fill="#161515"/>
      <path id="Контур_184" data-name="Контур 184" d="M58.917,119.523A9.727,9.727,0,1,0,49.19,109.8,9.727,9.727,0,0,0,58.917,119.523Z" transform="translate(225.629 459.158)" fill="#161515"/>
      <circle id="Эллипс_107" data-name="Эллипс 107" cx="10.621" cy="10.621" r="10.621" transform="translate(321.328 558.334)" fill="#161515"/>
      <path id="Контур_185" data-name="Контур 185" d="M77.07,122.15a11.18,11.18,0,1,0-11.18-11.18A11.18,11.18,0,0,0,77.07,122.15Z" transform="translate(302.283 457.873)" fill="#161515"/>
      <circle id="Эллипс_108" data-name="Эллипс 108" cx="10.621" cy="10.621" r="10.621" transform="translate(416.136 558.334)" fill="#161515"/>
      <circle id="Эллипс_109" data-name="Эллипс 109" cx="9.727" cy="9.727" r="9.727" transform="translate(464.434 559.228)" fill="#161515"/>
      <circle id="Эллипс_110" data-name="Эллипс 110" cx="8.273" cy="8.273" r="8.273" transform="translate(513.291 560.682)" fill="#161515"/>
      <circle id="Эллипс_111" data-name="Эллипс 111" cx="6.429" cy="6.429" r="6.429" transform="translate(562.539 562.526)" fill="#161515"/>
      <path id="Контур_186" data-name="Контур 186" d="M113.962,109.954a4.472,4.472,0,1,0-4.472-4.472A4.472,4.472,0,0,0,113.962,109.954Z" transform="translate(502.409 463.473)" fill="#161515"/>
      <circle id="Эллипс_112" data-name="Эллипс 112" cx="2.236" cy="2.236" r="2.236" transform="translate(661.539 566.719)" fill="#161515"/>
      <path id="Контур_187" data-name="Контур 187" d="M127.25,101.86Z" transform="translate(583.928 467.375)" fill="#161515"/>
      <path id="Контур_188" data-name="Контур 188" d="M17.459,111.262a.559.559,0,0,0,.5-.559.5.5,0,0,0-.5-.5.559.559,0,0,0-.559.5.615.615,0,0,0,.559.559Z" transform="translate(77.417 505.656)" fill="#161515"/>
      <circle id="Эллипс_113" data-name="Эллипс 113" cx="2.516" cy="2.516" r="2.516" transform="translate(139.82 613.843)" fill="#161515"/>
      <path id="Контур_189" data-name="Контур 189" d="M37.58,118.185a4.3,4.3,0,0,0,4.3-4.36,4.249,4.249,0,0,0-4.3-4.3,4.3,4.3,0,0,0-4.36,4.3A4.36,4.36,0,0,0,37.58,118.185Z" transform="translate(152.326 502.534)" fill="#161515"/>
      <path id="Контур_190" data-name="Контур 190" d="M47.315,121.081a5.925,5.925,0,1,0-5.925-5.925,5.926,5.926,0,0,0,5.925,5.925Z" transform="translate(189.827 501.203)" fill="#161515"/>
      <path id="Контур_191" data-name="Контур 191" d="M56.851,123.524a7.267,7.267,0,1,0-7.211-7.267,7.267,7.267,0,0,0,7.211,7.267Z" transform="translate(227.695 500.101)" fill="#161515"/>
      <path id="Контур_192" data-name="Контур 192" d="M65.882,124.948A8.05,8.05,0,1,0,58,116.9a8.05,8.05,0,0,0,7.882,8.05Z" transform="translate(266.067 499.46)" fill="#161515"/>
      <circle id="Эллипс_114" data-name="Эллипс 114" cx="8.273" cy="8.273" r="8.273" transform="translate(371.08 608.085)" fill="#161515"/>
      <circle id="Эллипс_115" data-name="Эллипс 115" cx="7.994" cy="7.994" r="7.994" transform="translate(418.763 608.365)" fill="#161515"/>
      <circle id="Эллипс_116" data-name="Эллипс 116" cx="7.211" cy="7.211" r="7.211" transform="translate(466.949 609.147)" fill="#161515"/>
      <circle id="Эллипс_117" data-name="Эллипс 117" cx="6.037" cy="6.037" r="6.037" transform="translate(515.526 610.321)" fill="#161515"/>
      <circle id="Эллипс_118" data-name="Эллипс 118" cx="4.472" cy="4.472" r="4.472" transform="translate(564.495 611.886)" fill="#161515"/>
      <circle id="Эллипс_119" data-name="Эллипс 119" cx="2.516" cy="2.516" r="2.516" transform="translate(613.855 613.843)" fill="#161515"/>
      <circle id="Эллипс_120" data-name="Эллипс 120" cx="0.671" cy="0.671" r="0.671" transform="translate(663.104 615.688)" fill="#161515"/>
      <path id="Контур_193" data-name="Контур 193" d="M25.949,119.742a.559.559,0,0,0,.5-.559.5.5,0,0,0-.5-.5.559.559,0,0,0-.559.5.615.615,0,0,0,.559.559Z" transform="translate(116.386 544.579)" fill="#161515"/>
      <path id="Контур_194" data-name="Контур 194" d="M35.744,122.593a2.068,2.068,0,0,0,2.068-2.124,2.012,2.012,0,0,0-2.068-2.068,2.068,2.068,0,0,0-2.124,2.068,2.124,2.124,0,0,0,2.124,2.124Z" transform="translate(154.162 543.293)" fill="#161515"/>
      <path id="Контур_195" data-name="Контур 195" d="M45.388,125.239a3.578,3.578,0,0,0,3.522-3.578,3.522,3.522,0,0,0-3.522-3.522,3.55,3.55,0,1,0,0,7.1Z" transform="translate(191.755 542.1)" fill="#161515"/>
      <path id="Контур_196" data-name="Контур 196" d="M54.322,127.174a4.64,4.64,0,0,0,0-9.224,4.64,4.64,0,0,0,0,9.224Z" transform="translate(230.223 541.228)" fill="#161515"/>
      <path id="Контур_197" data-name="Контур 197" d="M63.725,128.339a5.255,5.255,0,1,0-5.255-5.255,5.255,5.255,0,0,0,5.255,5.255Z" transform="translate(268.225 540.677)" fill="#161515"/>
      <path id="Контур_198" data-name="Контур 198" d="M72.48,128.94a5.59,5.59,0,1,0-5.59-5.59A5.59,5.59,0,0,0,72.48,128.94Z" transform="translate(306.873 540.356)" fill="#161515"/>
      <path id="Контур_199" data-name="Контур 199" d="M80.685,128.339a5.255,5.255,0,1,0-5.255-5.255A5.255,5.255,0,0,0,80.685,128.339Z" transform="translate(346.072 540.677)" fill="#161515"/>
      <path id="Контур_200" data-name="Контур 200" d="M88.614,127.219a4.64,4.64,0,1,0-4.584-4.64,4.584,4.584,0,0,0,4.584,4.64Z" transform="translate(385.546 541.183)" fill="#161515"/>
      <circle id="Эллипс_121" data-name="Эллипс 121" cx="3.522" cy="3.522" r="3.522" transform="translate(518.042 660.24)" fill="#161515"/>
      <circle id="Эллипс_122" data-name="Эллипс 122" cx="2.236" cy="2.236" r="2.236" transform="translate(566.731 661.526)" fill="#161515"/>
      <circle id="Эллипс_123" data-name="Эллипс 123" cx="0.671" cy="0.671" r="0.671" transform="translate(615.7 663.091)" fill="#161515"/>
      <path id="Контур_201" data-name="Контур 201" d="M34,127.3a.279.279,0,0,0,.28,0Z" transform="translate(155.906 584.145)" fill="#161515"/>
      <path id="Контур_202" data-name="Контур 202" d="M43.322,129.184a1.062,1.062,0,1,0-1.062-1.062,1.062,1.062,0,0,0,1.062,1.062Z" transform="translate(193.82 583.044)" fill="#161515"/>
      <path id="Контур_203" data-name="Контур 203" d="M52.308,130.869a2.012,2.012,0,0,0,0-3.969,2.012,2.012,0,0,0,0,3.969Z" transform="translate(232.238 582.309)" fill="#161515"/>
      <circle id="Эллипс_124" data-name="Эллипс 124" cx="2.516" cy="2.516" r="2.516" transform="translate(329.434 708.65)" fill="#161515"/>
      <path id="Контур_204" data-name="Контур 204" d="M70.14,132.34a2.8,2.8,0,1,0-2.739-2.8,2.739,2.739,0,0,0,2.739,2.8Z" transform="translate(309.214 581.621)" fill="#161515"/>
      <circle id="Эллипс_125" data-name="Эллипс 125" cx="2.516" cy="2.516" r="2.516" transform="translate(424.241 708.65)" fill="#161515"/>
      <path id="Контур_205" data-name="Контур 205" d="M86.228,130.869a2.012,2.012,0,1,0-1.678-1.984,2.012,2.012,0,0,0,1.678,1.984Z" transform="translate(387.932 582.309)" fill="#161515"/>
      <circle id="Эллипс_126" data-name="Эллипс 126" cx="1.062" cy="1.062" r="1.062" transform="translate(520.502 710.104)" fill="#161515"/>
      <path id="Контур_206" data-name="Контур 206" d="M101.81,127.3Z" transform="translate(467.157 584.145)" fill="#161515"/>
      <path id="Контур_207" data-name="Контур 207" d="M50.95,135.76Z" transform="translate(233.595 622.977)" fill="#161515"/>
      <path id="Контур_208" data-name="Контур 208" d="M59.639,136.239l.279-.28a.279.279,0,0,0-.559,0Z" transform="translate(272.31 622.61)" fill="#161515"/>
      <path id="Контур_209" data-name="Контур 209" d="M68.211,136.443a.391.391,0,1,0-.391-.391.391.391,0,0,0,.391.391Z" transform="translate(311.142 622.518)" fill="#161515"/>
      <path id="Контур_210" data-name="Контур 210" d="M76.829,136.239v-.28a.279.279,0,0,0-.559,0Z" transform="translate(349.928 622.61)" fill="#161515"/>
      <circle id="Эллипс_127" data-name="Эллипс 127" cx="0.112" cy="0.112" r="0.112" transform="translate(474.048 758.458)" fill="#161515"/>
    </g>
  </g>
</svg>
