<svg xmlns="http://www.w3.org/2000/svg" width="803.688" height="930.567" viewBox="0 0 803.688 930.567">
  <g id="Слой_2" data-name="Слой 2" transform="translate(7.66 649.636)">
    <g id="BACKGROUND" transform="translate(-7.626 280.935) rotate(-90)">
      <path id="Контур_59" data-name="Контур 59" d="M838.814,7.969s-307.6-71.821-400.535,229.89c-66.756,216.5-72.36,334.529-210.685,394.038S8.759,704.12.5,768.566" transform="translate(0 0)" fill="none" stroke="#4d4747" stroke-miterlimit="10" stroke-width="1"/>
      <path id="Контур_60" data-name="Контур 60" d="M234.54,768.566s-52.3-206.311,85.73-314.114c93.16-72.764,49.48-319.8,109.87-398.431C478-6.335,540.49,128.308,540.49,128.308" transform="translate(298.324 0)" fill="none" stroke="#4d4747" stroke-miterlimit="10" stroke-width="1"/>
      <path id="Контур_61" data-name="Контур 61" d="M275.48,533.39s1.59-100.43,108-166.27,64.76-179.57,126-196.87,122.38,57.2,122.38,57.2" transform="translate(298.324 270.256)" fill="none" stroke="#4d4747" stroke-miterlimit="10" stroke-width="1"/>
      <path id="Контур_62" data-name="Контур 62" d="M350.33,497.51s-8-82.47,73.16-93.12S573.8,483.9,573.8,483.9" transform="translate(298.324 270.256)" fill="none" stroke="#4d4747" stroke-miterlimit="10" stroke-width="1"/>
    </g>
  </g>
</svg>
