<svg xmlns="http://www.w3.org/2000/svg" width="454.556" height="636.961" viewBox="0 0 454.556 636.961">
  <g id="Слой_2" data-name="Слой 2" transform="translate(388.567 641.552) rotate(-173)">
    <g id="BACKGROUND">
      <path id="Контур_63" data-name="Контур 63" d="M38.08.25S89,90,214.66,74.07c140.94-17.9,201.52,85.8,166.6,156.63s-190,85.79-168.33,200.52S46.06,597.82,46.06,597.82" fill="none" stroke="#4d4747" stroke-miterlimit="10" stroke-width="1"/>
      <path id="Контур_64" data-name="Контур 64" d="M.17,104s107.44,38.91,214.34,24.94,119.4,48.82,106.89,73.82c-25.93,51.88-164.6,61.86-173.58,145.66C141.07,411.41,194.71,496.07,73,541" fill="none" stroke="#4d4747" stroke-miterlimit="10" stroke-width="1"/>
      <path id="Контур_65" data-name="Контур 65" d="M48.06,145.9s109.81-14,90.21,47.89C115.8,264.73,63,263.62,112.9,353.41,130.64,385.34,135.85,514,38.08,488.08" fill="none" stroke="#4d4747" stroke-miterlimit="10" stroke-width="1"/>
      <ellipse id="Эллипс_26" data-name="Эллипс 26" cx="49.38" cy="26.94" rx="49.38" ry="26.94" transform="translate(184.73 163.85)" fill="none" stroke="#4d4747" stroke-miterlimit="10" stroke-width="1"/>
    </g>
  </g>
</svg>
