<svg xmlns="http://www.w3.org/2000/svg" width="32" height="32" viewBox="0 0 32 32">
  <g id="price-tag" transform="translate(0)">
    <path id="Контур_13" data-name="Контур 13" d="M210.541,152.436l-1.678-2.238-.933,6.532a2.83,2.83,0,0,1-.8,1.591l-11.49,11.49a5.277,5.277,0,0,1-3.757,1.554,5.361,5.361,0,0,1-1.243-.146,3.437,3.437,0,0,0,2.9,1.591h13.75a3.441,3.441,0,0,0,3.438-3.437V153A.938.938,0,0,0,210.541,152.436Z" transform="translate(-178.729 -140.811)" fill="#3d3d3d"/>
    <circle id="Эллипс_22" data-name="Эллипс 22" cx="0.937" cy="0.937" r="0.937" transform="translate(18.409 13.7)" fill="#3d3d3d"/>
    <circle id="Эллипс_23" data-name="Эллипс 23" cx="0.937" cy="0.937" r="0.937" transform="translate(7.802 13.7)" fill="#3d3d3d"/>
    <path id="Контур_14" data-name="Контур 14" d="M15.59,27.675l11.49-11.49a.937.937,0,0,0,.265-.53l1.326-9.281a.938.938,0,0,0-.265-.8L26.417,3.589,23.766,6.241l.663.663A.937.937,0,1,1,23.1,8.229L20.451,5.578a.937.937,0,0,1,1.326-1.326l.663.663,2.652-2.652L23.1.274a.938.938,0,0,0-.8-.265L13.026,1.335a.937.937,0,0,0-.53.265L1.005,13.091a3.441,3.441,0,0,0,0,4.861l9.723,9.723a3.441,3.441,0,0,0,4.861,0Zm3.756-15.85a2.812,2.812,0,1,1-2.812,2.812,2.816,2.816,0,0,1,2.813-2.812ZM8.739,17.45a2.812,2.812,0,1,1,2.813-2.812A2.816,2.816,0,0,1,8.739,17.45ZM11.833,22.2a.938.938,0,0,1-.889-1.234L15.363,7.712a.938.938,0,1,1,1.779.593L12.722,21.563A.938.938,0,0,1,11.833,22.2Z" transform="translate(0 0)" fill="#3d3d3d"/>
    <path id="Контур_15" data-name="Контур 15" d="M404.771,1.6A.937.937,0,1,0,403.446.275l-1.989,1.989,1.326,1.326Z" transform="translate(-376.366 0)" fill="#3d3d3d"/>
  </g>
</svg>
