<svg xmlns="http://www.w3.org/2000/svg" width="36.251" height="32" viewBox="0 0 36.251 32">
  <path id="open-folder-with-document" d="M33.927,38.637h0l-.632,3.1a2.353,2.353,0,0,1-2.306,1.883H3.7A2.353,2.353,0,0,1,1.39,40.792L4.015,27.928a2.483,2.483,0,0,1,1.673-1.866h0c.059-.019.12-.036.181-.051l.009,0c.057-.014.115-.026.174-.035l.056-.007c.045-.006.091-.013.137-.017.067-.005.135-.009.2-.009H35.068a1.184,1.184,0,0,1,1.183,1.148,1.2,1.2,0,0,1-.024.272Zm-.012-14.526a2.085,2.085,0,0,0-2.071-1.863H30.9v1.863ZM2.222,27.562a4.332,4.332,0,0,1,3.466-3.383V19.138H2.443A2.446,2.446,0,0,0,0,21.581V38.452ZM29.065,12.643V24.111H7.518V12.643a1.029,1.029,0,0,1,1.027-1.027H28.038A1.028,1.028,0,0,1,29.065,12.643Zm-2.634,8.1a.915.915,0,0,0-.915-.915H11.067a.915.915,0,0,0,0,1.83h14.45A.915.915,0,0,0,26.431,20.747Zm0-4.725a.915.915,0,0,0-.915-.915H11.067a.915.915,0,0,0,0,1.83h14.45A.915.915,0,0,0,26.431,16.022Z" transform="translate(0 -11.616)" fill="#3d3d3d"/>
</svg>
