<svg id="manager" xmlns="http://www.w3.org/2000/svg" width="32" height="32" viewBox="0 0 32 32">
  <circle id="Эллипс_19" data-name="Эллипс 19" cx="2.824" cy="2.824" r="2.824" transform="translate(13.176)" fill="#3d3d3d"/>
  <circle id="Эллипс_20" data-name="Эллипс 20" cx="2.824" cy="2.824" r="2.824" transform="translate(3.765 16.941)" fill="#3d3d3d"/>
  <path id="Контур_12" data-name="Контур 12" d="M25.412,106.941a6.576,6.576,0,0,0-5.011,2.316l-3.46-2.768V99.412h5.647V96.588a6.588,6.588,0,1,0-13.176,0v2.824h5.647v7.077l-3.46,2.768A6.585,6.585,0,0,0,0,113.529v2.824H13.176v-2.824a6.55,6.55,0,0,0-.566-2.671L16,108.146l3.39,2.712a6.55,6.55,0,0,0-.566,2.671v2.824H32v-2.824A6.6,6.6,0,0,0,25.412,106.941Z" transform="translate(0 -84.353)" fill="#3d3d3d"/>
  <circle id="Эллипс_21" data-name="Эллипс 21" cx="2.824" cy="2.824" r="2.824" transform="translate(22.588 16.941)" fill="#3d3d3d"/>
</svg>
