<svg xmlns="http://www.w3.org/2000/svg" width="34.132" height="32" viewBox="0 0 34.132 32">
  <g id="chat" transform="translate(0 -15.988)">
    <g id="Сгруппировать_10" data-name="Сгруппировать 10" transform="translate(0 15.988)">
      <g id="Сгруппировать_9" data-name="Сгруппировать 9" transform="translate(0 0)">
        <path id="Контур_21" data-name="Контур 21" d="M25.132,15.988H3a3,3,0,0,0-3,3v16a3,3,0,0,0,3,3H6v5a1,1,0,0,0,1.707.707L13.12,38.28a1,1,0,0,1,.707-.293h11.3a3,3,0,0,0,3-3v-16A3,3,0,0,0,25.132,15.988ZM5,21.988H19.133a1,1,0,1,1,0,2H5a1,1,0,0,1,0-2Zm10.133,10H5a1,1,0,1,1,0-2H15.133a1,1,0,1,1,0,2Zm8-4H5a1,1,0,0,1,0-2H23.132a1,1,0,1,1,0,2Z" transform="translate(0 -15.988)" fill="#3d3d3d"/>
      </g>
    </g>
    <g id="Сгруппировать_12" data-name="Сгруппировать 12" transform="translate(12.241 19.988)">
      <g id="Сгруппировать_11" data-name="Сгруппировать 11" transform="translate(0 0)">
        <path id="Контур_22" data-name="Контур 22" d="M202.521,75.989h-.987v15a5.017,5.017,0,0,1-5.013,5H185.764l-2.133,1.987h8.477l5.707,5.72a1,1,0,0,0,1.707-.707V97.975h3a2.992,2.992,0,0,0,3-2.987v-16A3,3,0,0,0,202.521,75.989Z" transform="translate(-183.631 -75.989)" fill="#3d3d3d"/>
      </g>
    </g>
  </g>
</svg>
