<svg id="squared-bullet-list" xmlns="http://www.w3.org/2000/svg" width="32" height="32" viewBox="0 0 32 32">
  <path id="Контур_23" data-name="Контур 23" d="M30.47,0H1.531A1.531,1.531,0,0,0,0,1.531V30.468A1.533,1.533,0,0,0,1.531,32H30.469A1.532,1.532,0,0,0,32,30.468V1.532A1.532,1.532,0,0,0,30.47,0ZM9.233,26.748H5V22.515H9.232v4.233Zm0-8.167H5V14.348H9.232v4.233Zm0-8.168H5V6.181H9.232v4.232ZM24.277,25.652H12.86a1.021,1.021,0,1,1,0-2.042H24.277a1.021,1.021,0,1,1,0,2.042Zm0-8.166H12.86a1.021,1.021,0,1,1,0-2.042H24.277a1.021,1.021,0,1,1,0,2.042Zm.615-8.168H13.475a1.021,1.021,0,0,1,0-2.042H24.892a1.021,1.021,0,1,1,0,2.042Z" fill="#3d3d3d"/>
</svg>
