<svg id="Слой_2" data-name="Слой 2" xmlns="http://www.w3.org/2000/svg" xmlns:xlink="http://www.w3.org/1999/xlink" width="69.84" height="52" viewBox="0 0 69.84 52">
  <defs>
    <linearGradient id="linear-gradient" x1="0.027" y1="0.442" x2="1.015" y2="0.653" gradientUnits="objectBoundingBox">
      <stop offset="0" stop-color="#4c0071"/>
      <stop offset="0.42" stop-color="#80009a"/>
      <stop offset="0.99" stop-color="#c300ce"/>
    </linearGradient>
    <linearGradient id="linear-gradient-2" x1="-0.07" y1="0.363" x2="1.043" y2="0.575" xlink:href="#linear-gradient"/>
    <linearGradient id="linear-gradient-3" x1="-36.903" y1="-18.608" x2="-32.779" y2="-13.303" gradientUnits="objectBoundingBox">
      <stop offset="0" stop-color="#f3faed"/>
      <stop offset="0.99" stop-color="#b7e3ff"/>
    </linearGradient>
    <linearGradient id="linear-gradient-4" x1="-0.288" y1="0.5" x2="1.312" y2="0.5" gradientUnits="objectBoundingBox">
      <stop offset="0" stop-color="#ff4f80"/>
      <stop offset="0.25" stop-color="#ff667f"/>
      <stop offset="0.99" stop-color="#ffa97b"/>
    </linearGradient>
    <linearGradient id="linear-gradient-5" x1="-1.052" y1="0.498" x2="0.548" y2="0.498" xlink:href="#linear-gradient-4"/>
    <linearGradient id="linear-gradient-6" x1="0.003" y1="0.501" x2="0.861" y2="0.501" xlink:href="#linear-gradient-4"/>
  </defs>
  <g id="OBJECTS">
    <path id="Контур_42" data-name="Контур 42" d="M69.641,16.652a2.145,2.145,0,0,1-2.131-1.916C67.463,14.319,66.166,4.282,56.6,4.282A9.121,9.121,0,0,0,47.974,9.21a14.662,14.662,0,0,0-1.613,5.418A2.165,2.165,0,0,1,44.1,16.645a2.138,2.138,0,0,1-2.017-2.252C42.354,9.412,45.729,0,56.6,0S71.235,9.338,71.773,14.279a2.145,2.145,0,0,1-1.9,2.36Z" transform="translate(-13.789)" fill="url(#linear-gradient)"/>
    <path id="Контур_43" data-name="Контур 43" d="M25.68,42.29Z" transform="translate(-8.416 -13.86)" fill="none"/>
    <path id="Контур_44" data-name="Контур 44" d="M74.422,27.72H27.894a3.442,3.442,0,0,0-3.408,3.892l.793,5.9h0c.087.605,1.674,9.654,19.5,8,0,0-5.479,3.422-6.339,8.182s2.434,7.395,5.849,7.395H70.859a3.429,3.429,0,0,0,3.4-2.924l3.563-26.541a3.435,3.435,0,0,0-3.4-3.9Z" transform="translate(-8.015 -9.085)" fill="url(#linear-gradient-2)"/>
    <path id="Контур_45" data-name="Контур 45" d="M25.68,42.28h0v0Z" transform="translate(-8.416 -13.856)" fill="#fff"/>
    <path id="Контур_46" data-name="Контур 46" d="M25.68,42.28h0v0Z" transform="translate(-8.416 -13.856)" fill="#fff"/>
    <path id="Контур_47" data-name="Контур 47" d="M58.733,54.81l7.395-8.2a1.008,1.008,0,0,0-.739-1.681L54.363,44.82a1.291,1.291,0,0,0-.854,2.272L55.257,48.6A3.805,3.805,0,0,1,56.6,51.6l-.067,2.306a1.291,1.291,0,0,0,2.2.9Z" transform="translate(-17.388 -14.689)" fill="url(#linear-gradient-3)"/>
    <path id="Контур_48" data-name="Контур 48" d="M16.175,51.742H7.651A2.1,2.1,0,0,1,5.56,49.651h0A2.1,2.1,0,0,1,7.651,47.56h8.524a2.1,2.1,0,0,1,2.091,2.091h0a2.1,2.1,0,0,1-2.091,2.091Z" transform="translate(-1.822 -15.587)" fill="url(#linear-gradient-4)"/>
    <path id="Контур_49" data-name="Контур 49" d="M30.615,73.068H22.091A2.1,2.1,0,0,1,20,70.984h0A2.091,2.091,0,0,1,22.091,68.9h8.524a2.091,2.091,0,0,1,2.091,2.084h0a2.1,2.1,0,0,1-2.091,2.084Z" transform="translate(-6.555 -22.581)" fill="url(#linear-gradient-5)"/>
    <path id="Контур_50" data-name="Контур 50" d="M21.338,62.493H2.353A2.366,2.366,0,0,1,0,60.14H0a2.366,2.366,0,0,1,2.353-2.36H21.338a2.366,2.366,0,0,1,2.36,2.36h0a2.366,2.366,0,0,1-2.36,2.353Z" transform="translate(0 -18.936)" fill="url(#linear-gradient-6)"/>
  </g>
</svg>
