<svg xmlns="http://www.w3.org/2000/svg" width="89.695" height="103.723" viewBox="0 0 89.695 103.723">
  <path id="Контур_3" data-name="Контур 3" d="M143.9,183.267h-.065a14.59,14.59,0,0,1-14.41-14.623V94.012a14.439,14.439,0,0,1,22.012-12.295L212.253,119.2a14.44,14.44,0,0,1-.054,24.624l-43.965,26.917a4.394,4.394,0,1,1-4.586-7.5l43.966-26.92a5.65,5.65,0,0,0,.027-9.642L146.83,89.2a5.655,5.655,0,0,0-8.616,4.814v74.633a5.495,5.495,0,0,0,8.6,4.871,4.394,4.394,0,0,1,4.578,7.5A14.5,14.5,0,0,1,143.9,183.267Zm0,0" transform="translate(-129.426 -79.544)" fill="#fff"/>
</svg>
